<?xml version="1.0" standalone="no"?>
<!DOCTYPE svg PUBLIC "-//W3C//DTD SVG 20010904//EN"
 "http://www.w3.org/TR/2001/REC-SVG-20010904/DTD/svg10.dtd">
<svg version="1.0" xmlns="http://www.w3.org/2000/svg"
 width="16.000000pt" height="16.000000pt" viewBox="0 0 16.000000 16.000000"
 preserveAspectRatio="xMidYMid meet">
<metadata>
Created by potrace 1.11, written by Peter Selinger 2001-2013
</metadata>
<g transform="translate(0.000000,16.000000) scale(0.003125,-0.003125)"
fill="#000000" stroke="none">
<path d="M633 5014 c-42 -21 -82 -65 -96 -106 -17 -49 -15 -1884 2 -1948 42
-158 146 -288 283 -354 l58 -28 2 -1122 3 -1121 29 -60 c35 -71 101 -136 176
-173 l55 -27 265 0 c265 0 265 0 321 26 93 44 172 136 199 232 10 38 13 267
13 1146 l0 1098 61 30 c146 72 265 235 284 388 4 28 7 466 7 975 l0 925 -23
40 c-35 61 -83 90 -151 90 -68 -1 -110 -23 -149 -79 l-27 -39 -1 -607 c-1
-334 -4 -623 -8 -642 -9 -49 -71 -113 -121 -127 -87 -23 -166 13 -208 96 -15
28 -17 99 -17 645 -1 485 -4 619 -14 643 -58 132 -220 152 -306 38 l-35 -46
-1 -621 c-1 -455 -5 -629 -13 -651 -42 -104 -171 -142 -263 -79 -80 56 -78 30
-78 716 0 659 0 658 -55 706 -55 48 -135 63 -192 36z"/>
<path d="M3360 5010 c-124 -26 -220 -66 -320 -133 -61 -42 -163 -140 -216
-209 -45 -58 -115 -190 -129 -243 -5 -16 -9 -32 -10 -35 -3 -8 -14 -53 -22
-85 -4 -16 -9 -565 -10 -1218 l-4 -1188 30 -29 29 -30 189 0 c103 1 250 1 325
0 l138 0 0 -725 c0 -463 4 -741 10 -771 19 -84 57 -140 138 -204 83 -65 113
-70 396 -67 247 2 252 2 306 28 100 47 187 154 206 253 9 52 9 4514 -1 4546
-12 41 -54 89 -95 110 -36 19 -60 19 -457 19 -359 -1 -430 -3 -503 -19z"/>
</g>
</svg>
